<svg width="299" height="83" viewBox="0 0 299 83" fill="none" xmlns="http://www.w3.org/2000/svg">
<path d="M14.8744 72.2164L10.9941 81.9171H8.83842V15.09C8.83842 11.1019 6.46714 9.59292 2.37128 9.59292H0.107786V7.22164C9.26956 6.57492 12.3953 4.74257 14.8744 0.215574L17.0301 -4.75639e-07V38.9106C20.8026 33.9525 26.1919 30.9345 32.1201 30.9345C43.761 30.9345 53.1383 42.4675 53.1383 56.6952C53.1383 70.8151 43.761 82.456 32.0123 82.456C25.114 82.456 19.1858 78.3601 14.8744 72.2164ZM17.1379 54.6473C17.1379 63.1624 19.9403 78.7913 31.15 78.7913C40.9585 78.7913 43.8687 67.2582 43.8687 58.2042C43.8687 48.7191 40.5274 34.4914 29.8566 34.4914C19.8326 34.4914 17.1379 46.24 17.1379 54.6473ZM61.2972 54.4317C61.2972 65.1025 65.393 78.7913 78.3273 78.7913C84.6866 78.7913 90.8304 75.5577 90.8304 67.9049H93.2017V77.0667C87.8124 81.2703 81.3453 82.456 76.9261 82.456C63.0217 82.456 52.0276 70.8151 52.0276 56.4797C52.0276 42.4675 62.2672 30.9345 74.9859 30.9345C87.1657 30.9345 96.4353 41.6052 96.4353 54.4317H61.2972ZM87.3813 51.5215C86.9501 43.761 83.8244 34.4914 74.8781 34.4914C66.1475 34.4914 62.375 43.4376 61.5127 51.5215H87.3813ZM123.613 48.8269C121.781 51.1982 118.655 52.7072 114.236 54.9707C109.924 57.1264 104.859 60.1444 104.859 67.6894C104.859 74.2643 108.631 78.7913 113.589 78.7913C119.086 78.7913 123.613 73.402 123.613 64.4558V48.8269ZM110.895 82.456C102.918 82.456 96.0201 77.4978 96.0201 68.875C96.0201 59.9288 103.565 56.2641 109.17 53.5694C118.655 49.1502 123.182 47.3179 123.182 42.3597C123.182 39.0184 121.026 34.4914 114.451 34.4914C108.308 34.4914 103.134 38.4795 103.134 43.4376H100.763V34.4914C105.397 31.689 110.895 30.9345 114.559 30.9345C125.877 30.9345 131.805 38.1561 131.805 47.3179V69.4139C131.805 76.9589 133.422 79.5458 137.733 79.5458C138.164 79.5458 138.595 79.5458 139.027 79.438L139.242 81.9171C137.41 82.0248 135.793 82.1326 134.392 82.1326C127.925 82.1326 125.985 80.0847 125.122 71.7852C122.32 79.438 117.038 82.456 110.895 82.456ZM171.075 45.8089C171.075 41.1741 168.165 38.1561 164.177 38.1561C159.326 38.1561 155.554 42.7909 155.015 50.767V72.5397C155.015 77.1745 157.279 79.438 162.237 79.438H164.5V81.9171H138.955V79.438H140.572C144.775 79.438 146.823 77.1745 146.823 72.5397V47.749C146.823 43.0065 144.129 40.6352 139.494 40.6352H137.877V38.3717C147.147 37.5094 149.302 35.5692 152.428 31.4734H155.015V42.1442C158.895 34.2758 162.776 30.9345 167.734 30.9345C169.889 30.9345 172.584 31.5812 173.77 32.2279V46.6712H171.075V45.8089ZM213.224 48.8269C213.224 40.9585 209.021 35.8926 202.661 35.8926C196.841 35.8926 191.344 40.204 189.835 47.5334V72.5397C189.835 77.1745 191.775 79.438 195.979 79.438H197.595V81.9171H173.775V79.438H175.392C179.595 79.438 181.643 77.1745 181.643 72.5397V47.749C181.643 43.0065 178.949 40.6352 174.314 40.6352H172.697V38.3717C181.967 37.5094 184.122 35.5692 187.248 31.4734H189.835V39.3417C194.362 33.4135 200.074 30.9345 205.572 30.9345C214.949 30.9345 221.308 38.0483 221.308 48.8269V72.5397C221.308 77.1745 223.356 79.438 227.452 79.438H229.069V81.9171H205.248V79.438H206.973C211.069 79.438 213.224 77.1745 213.224 72.5397V48.8269ZM229.028 40.6352H227.411V38.3717C236.68 37.5094 238.836 35.5692 241.962 31.4734H244.549V72.5397C244.549 77.1745 246.489 79.438 250.692 79.438H252.309V81.9171H228.489V79.438H230.105C234.309 79.438 236.357 77.1745 236.357 72.5397V47.749C236.357 43.0065 233.662 40.6352 229.028 40.6352ZM233.339 15.9523L240.561 8.83842L247.674 15.9523L240.561 23.1739L233.339 15.9523ZM261.606 54.4317C261.606 65.1025 265.702 78.7913 278.636 78.7913C284.995 78.7913 291.139 75.5577 291.139 67.9049H293.51V77.0667C288.121 81.2703 281.654 82.456 277.235 82.456C263.33 82.456 252.336 70.8151 252.336 56.4797C252.336 42.4675 262.576 30.9345 275.295 30.9345C287.474 30.9345 296.744 41.6052 296.744 54.4317H261.606ZM287.69 51.5215C287.259 43.761 284.133 34.4914 275.187 34.4914C266.456 34.4914 262.684 43.4376 261.821 51.5215H287.69Z" fill="black"/>
</svg>
